<svg version="1.1" id="Layer_1" xmlns="http://www.w3.org/2000/svg" xmlns:xlink="http://www.w3.org/1999/xlink" x="0px" y="0px"
	 width="100%" viewBox="0 0 2048 2048" enable-background="new 0 0 2048 2048" xml:space="preserve">
<path fill="#000000" opacity="1.000000" stroke="none" 
	d="
M594.764282,1199.155029 
	C602.040222,1199.386353 608.846436,1199.638062 615.653748,1199.851807 
	C619.103271,1199.960083 620.676758,1198.131714 621.019958,1194.792725 
	C621.473328,1190.381958 622.149658,1185.994507 622.695740,1181.592773 
	C623.809631,1172.613647 624.799072,1163.617554 626.027710,1154.654297 
	C627.433228,1144.400635 629.106934,1134.184204 630.546753,1123.934937 
	C632.102722,1112.858276 633.460083,1101.753540 635.019958,1090.677490 
	C636.623840,1079.289429 638.379150,1067.922852 640.046753,1056.543701 
	C641.381348,1047.437134 642.683533,1038.325806 644.000549,1029.216675 
	C645.505249,1018.809143 647.006409,1008.401123 648.516968,997.994446 
	C650.004578,987.745667 651.066956,977.410278 653.117126,967.274963 
	C655.183716,957.058960 650.158630,948.918884 646.649048,940.270691 
	C642.168091,929.229065 637.577576,918.230835 632.926575,907.259521 
	C629.182617,898.427795 625.162842,889.712158 621.472778,880.858521 
	C615.892822,867.470215 610.514343,853.997986 605.006775,840.579346 
	C602.654175,834.847351 600.183655,829.163818 597.781494,823.452087 
	C594.300598,815.175293 590.823547,806.896729 587.361877,798.611816 
	C578.986877,778.567749 570.582031,758.535950 562.266174,738.467285 
	C556.193359,723.812073 549.846313,709.250916 544.414062,694.358643 
	C541.889038,687.436340 542.681824,680.368042 548.183594,674.152649 
	C555.658081,665.708679 562.431580,656.647888 569.636353,647.959900 
	C572.769531,644.181641 576.364868,641.856262 581.927185,641.866821 
	C679.254333,642.051025 776.581970,641.999878 873.909485,641.999878 
	C886.766296,641.999878 889.448486,643.937744 893.915344,655.848633 
	C897.176270,664.543640 900.581787,673.186707 904.062866,681.796387 
	C909.623413,695.549316 915.230408,709.284363 920.947937,722.972656 
	C926.482361,736.222717 932.302734,749.353882 937.780212,762.627014 
	C946.844971,784.593323 955.703979,806.644470 964.717834,828.631897 
	C967.508545,835.439392 970.638611,842.108215 973.406006,848.924805 
	C979.372253,863.620544 985.162476,878.387634 991.112610,893.089966 
	C993.384460,898.703674 995.939026,904.202209 998.290955,909.784302 
	C1003.300293,921.673401 1008.231873,933.595337 1013.250793,945.480347 
	C1018.149292,957.080261 1023.177551,968.625671 1028.036255,980.242065 
	C1032.451294,990.797363 1036.656738,1001.440125 1041.061035,1012.000000 
	C1045.778442,1023.310974 1050.734985,1034.523071 1055.383667,1045.861816 
	C1064.338867,1067.705200 1072.806763,1089.756836 1082.211182,1111.403076 
	C1085.444580,1118.845459 1083.138794,1124.092896 1078.940552,1129.471436 
	C1072.055420,1138.292603 1064.916138,1146.916016 1058.066528,1155.764038 
	C1054.314331,1160.610840 1049.988647,1163.157959 1043.509277,1163.114136 
	C1008.180237,1162.875244 972.848816,1163.001587 937.518188,1163.004639 
	C931.817017,1163.005127 931.160583,1164.314819 933.063843,1169.410889 
	C936.267456,1177.989136 939.306885,1186.655029 941.798767,1195.458618 
	C942.662720,1198.511108 943.962158,1199.055054 946.568848,1199.047607 
	C959.228455,1199.011230 971.888245,1199.065430 984.547974,1199.061646 
	C1017.147095,1199.052002 1049.746216,1199.009521 1082.345337,1199.027222 
	C1088.462524,1199.030518 1094.596069,1199.714355 1097.472046,1206.128052 
	C1098.958130,1209.442139 1099.841797,1213.306396 1099.890869,1216.937012 
	C1100.131226,1234.765991 1100.108154,1252.601196 1099.920044,1270.431519 
	C1099.876221,1274.575806 1101.382690,1276.113647 1105.355591,1276.028198 
	C1111.019287,1275.906250 1116.700806,1275.760620 1122.349609,1276.076294 
	C1126.688599,1276.318848 1128.128540,1274.908936 1128.092163,1270.451050 
	C1127.904175,1247.454102 1128.028076,1224.454834 1128.027832,1201.456299 
	C1128.027588,1177.626343 1128.121704,1153.795532 1127.947876,1129.966797 
	C1127.873657,1119.793457 1134.764404,1111.713257 1145.989624,1111.788330 
	C1210.815186,1112.222534 1275.645386,1112.114258 1340.473267,1111.906860 
	C1353.749878,1111.864502 1359.082886,1114.919312 1364.149658,1128.367554 
	C1370.124390,1144.225708 1376.056152,1160.100586 1381.918335,1176.000732 
	C1388.204590,1193.051270 1394.397095,1210.136475 1400.598511,1227.218140 
	C1401.042725,1228.442017 1401.300415,1229.748169 1401.517700,1231.037476 
	C1403.297485,1241.596802 1412.028809,1239.938721 1419.118408,1240.965820 
	C1430.837036,1242.663330 1442.572021,1244.263184 1454.323364,1245.716064 
	C1464.293579,1246.948853 1474.305298,1247.841675 1484.282471,1249.022339 
	C1493.113647,1250.067505 1501.917847,1251.339233 1510.742432,1252.443115 
	C1520.541138,1253.668823 1530.352295,1254.793091 1540.152588,1256.006470 
	C1552.074097,1257.482544 1563.991821,1258.989868 1575.907104,1260.515381 
	C1582.115845,1261.310181 1588.338135,1262.036987 1594.514404,1263.039795 
	C1602.340454,1264.310669 1608.332886,1268.234253 1610.518555,1276.207031 
	C1611.792603,1280.854004 1612.717163,1285.718384 1612.902100,1290.519531 
	C1613.426392,1304.137451 1613.592773,1317.772217 1613.685791,1331.401978 
	C1613.726440,1337.357056 1613.128174,1343.313599 1613.029419,1349.273071 
	C1612.906860,1356.674316 1613.034668,1364.079346 1612.989014,1371.482300 
	C1612.962280,1375.814697 1614.353638,1378.552612 1619.359863,1378.036377 
	C1621.503540,1377.815430 1623.689209,1377.999268 1625.855713,1378.000122 
	C1633.844727,1378.003296 1638.938232,1383.046387 1638.986938,1391.138306 
	C1639.042114,1400.304077 1639.025879,1409.470581 1638.991821,1418.636597 
	C1638.962769,1426.482422 1634.547119,1430.951294 1626.786987,1430.991089 
	C1619.228638,1431.029907 1611.667603,1431.097046 1604.113770,1430.908203 
	C1602.735107,1430.873779 1600.831665,1430.036987 1600.111328,1428.948242 
	C1594.965820,1421.170776 1590.134766,1413.186035 1585.067505,1405.355347 
	C1577.872314,1394.235840 1570.534790,1383.208618 1563.307617,1372.109741 
	C1558.512207,1364.745361 1553.354492,1357.570312 1549.145630,1349.879883 
	C1539.184326,1331.679565 1525.008789,1321.469971 1503.407471,1321.861328 
	C1473.085938,1322.410400 1442.746094,1321.864746 1412.415771,1322.052979 
	C1395.539795,1322.157715 1382.873291,1329.919800 1373.907959,1344.207642 
	C1363.721313,1360.442017 1353.161621,1376.442017 1342.914429,1392.638916 
	C1334.690063,1405.638184 1326.842163,1418.876953 1318.530518,1431.819092 
	C1313.923950,1438.992310 1308.908325,1445.932617 1303.617798,1452.614258 
	C1302.392944,1454.161255 1299.294189,1454.866577 1297.054565,1454.873047 
	C1249.893311,1455.008545 1202.731445,1454.994019 1155.569824,1454.996826 
	C1061.075928,1455.002197 966.582031,1454.970703 872.088318,1455.088989 
	C867.284790,1455.094971 864.546875,1453.781494 861.907532,1449.414307 
	C853.762085,1435.936279 844.792480,1422.958984 836.280945,1409.698486 
	C832.030151,1403.075928 828.204651,1396.180542 823.957458,1389.555542 
	C819.857178,1383.159546 815.342957,1377.029541 811.225403,1370.644165 
	C805.658142,1362.010742 800.203857,1353.301147 794.871094,1344.520874 
	C789.216614,1335.211060 781.504333,1328.201050 771.371277,1324.386597 
	C767.009216,1322.744629 762.029907,1322.141724 757.324158,1322.110596 
	C727.244385,1321.911865 697.154053,1322.441162 667.084534,1321.851440 
	C645.803284,1321.434204 630.309082,1329.690552 619.376587,1347.985352 
	C610.154480,1363.417969 599.908386,1378.237793 590.147827,1393.349854 
	C582.775330,1404.764648 575.340637,1416.142212 568.182312,1427.690552 
	C566.176636,1430.926270 563.862549,1432.255249 560.118958,1432.056641 
	C555.334045,1431.802979 550.525513,1431.995239 545.400208,1431.995239 
	C544.909119,1436.556396 544.073242,1440.775391 544.060486,1444.996582 
	C543.954346,1479.994263 544.000305,1514.992310 544.000793,1549.990234 
	C544.000793,1550.823486 543.959595,1551.660034 544.017517,1552.489502 
	C544.503174,1559.435913 545.103943,1559.877197 551.978149,1560.047363 
	C555.584106,1560.136719 559.315247,1560.227051 562.746033,1561.187744 
	C568.314087,1562.746826 571.654236,1568.136719 570.974854,1573.254028 
	C570.423950,1577.403564 565.510132,1580.934326 559.732361,1580.969116 
	C545.196472,1581.056396 530.659607,1580.999512 516.123169,1580.999878 
	C510.730530,1581.000000 505.206390,1581.713379 499.989990,1580.754028 
	C496.323700,1580.079712 491.943146,1577.928223 489.887573,1575.019043 
	C486.101440,1569.660400 490.647919,1562.207275 497.771423,1561.072998 
	C501.666229,1560.452881 505.638367,1560.122192 509.581879,1560.060791 
	C513.299622,1560.002686 515.043030,1558.674561 515.036804,1554.758667 
	C514.973572,1515.261108 515.001343,1475.763550 514.990662,1436.265869 
	C514.989685,1432.718628 513.975891,1431.186279 509.629059,1431.312134 
	C504.324463,1431.465698 497.980682,1432.490601 494.403687,1426.753174 
	C492.751495,1424.103027 491.242401,1420.850464 491.154419,1417.827759 
	C490.783630,1405.090698 491.037201,1392.336670 490.900726,1379.590576 
	C490.874847,1377.170044 490.115601,1374.757568 489.625671,1371.944946 
	C488.728333,1372.421997 487.825531,1372.606201 487.432983,1373.155273 
	C481.912537,1380.876709 473.652863,1381.805664 465.229218,1381.948242 
	C454.071289,1382.137085 442.896973,1382.292358 431.750427,1381.889160 
	C424.261902,1381.618408 417.499115,1379.051758 413.579620,1371.912109 
	C412.810028,1370.510254 412.127594,1368.859619 412.070435,1367.299316 
	C411.634888,1355.408447 411.116852,1343.511841 411.107635,1331.616577 
	C411.096985,1317.825928 411.819000,1304.034424 411.790283,1290.244263 
	C411.746582,1269.256958 411.231537,1248.270874 411.125977,1227.283325 
	C411.088287,1219.793091 411.724548,1212.301758 411.929047,1204.807495 
	C412.057892,1200.086060 411.281952,1195.240234 412.085876,1190.656006 
	C414.424652,1177.319336 420.393250,1173.346191 431.563263,1173.075195 
	C444.055176,1172.772217 456.566895,1172.745483 469.057465,1173.073608 
	C482.416595,1173.424683 489.976166,1181.795532 489.968048,1195.350830 
	C489.953094,1220.348999 490.091553,1245.348022 489.902618,1270.344604 
	C489.868225,1274.897339 491.624237,1276.196777 495.739624,1276.038208 
	C500.232666,1275.864990 504.746735,1275.819092 509.234741,1276.048340 
	C513.798218,1276.281616 515.890747,1273.653442 515.886414,1269.825928 
	C515.871704,1256.871338 515.408630,1243.917725 515.186951,1230.962524 
	C515.078674,1224.633789 514.226196,1218.144287 515.304932,1212.007812 
	C517.071350,1201.959473 521.138489,1199.386230 533.097473,1199.137207 
	C553.487610,1198.712524 573.894958,1199.108521 594.764282,1199.155029 
M666.017517,1086.272583 
	C664.422607,1097.232544 662.856262,1108.196655 661.223938,1119.151001 
	C659.883118,1128.149414 658.292908,1137.114136 657.118774,1146.133423 
	C655.259155,1160.417725 653.872070,1174.765747 651.868774,1189.028320 
	C650.445251,1199.163330 650.139221,1199.046631 660.257263,1199.021606 
	C680.237183,1198.972168 700.217773,1198.932251 720.197327,1199.039429 
	C739.810974,1199.144531 759.423523,1199.496948 779.036804,1199.510620 
	C780.305786,1199.511475 782.655518,1197.561157 782.677063,1196.481934 
	C782.869629,1186.838623 782.763428,1177.183716 782.489624,1167.539551 
	C782.403076,1164.489990 780.658386,1163.094971 777.186401,1163.183716 
	C768.055176,1163.417480 758.907776,1162.984253 749.774231,1163.173218 
	C738.794128,1163.400391 737.829041,1161.273804 734.085388,1152.456055 
	C733.768005,1151.708496 733.834595,1150.797729 733.517151,1150.050293 
	C723.054504,1125.416382 712.376160,1100.872070 702.144897,1076.142700 
	C694.419739,1057.470703 687.291809,1038.552246 679.787048,1019.787903 
	C679.256836,1018.462280 677.810059,1017.503296 676.789429,1016.373779 
	C676.194397,1017.747070 675.249512,1019.074280 675.061462,1020.501221 
	C673.894287,1029.359131 673.046997,1038.260376 671.807739,1047.107178 
	C670.018494,1059.880249 667.985779,1072.619141 666.017517,1086.272583 
z"/>
<path fill="#000000" opacity="1.000000" stroke="none" 
	d="
M635.399902,1382.267334 
	C647.958984,1372.312378 661.269165,1364.918457 676.558899,1360.551758 
	C693.131958,1355.818359 709.427795,1354.966431 726.392273,1357.773193 
	C741.887390,1360.336548 755.613831,1365.990356 769.081726,1374.121948 
	C791.813049,1387.846802 806.064941,1407.831787 815.065613,1431.839600 
	C821.078979,1447.879272 822.192078,1464.819702 820.239929,1482.029419 
	C819.002563,1492.938354 816.769043,1503.386719 812.291748,1513.396362 
	C804.322876,1531.211914 793.417114,1546.868286 777.068909,1557.807251 
	C767.118286,1564.465576 756.617920,1570.698242 745.583191,1575.212158 
	C737.091675,1578.685669 727.452393,1579.848389 718.195435,1580.825439 
	C707.534790,1581.950562 696.876465,1581.595703 686.128540,1579.301880 
	C669.257812,1575.701538 654.089539,1569.118530 640.230347,1558.869873 
	C624.876709,1547.516235 613.803955,1533.015137 605.418274,1516.004395 
	C596.234741,1497.375610 593.710693,1477.650024 595.244324,1457.392822 
	C596.173950,1445.114136 599.526367,1433.212769 605.810242,1422.320679 
	C609.538574,1415.858032 612.104675,1408.597290 616.527893,1402.695679 
	C621.991394,1395.406128 628.840332,1389.154907 635.399902,1382.267334 
M734.291138,1422.137695 
	C721.577698,1415.596069 708.666687,1411.978027 694.244263,1416.844238 
	C676.081360,1422.972534 663.036438,1434.342651 657.477722,1452.716309 
	C649.704956,1478.408325 660.099121,1502.945923 682.121338,1515.391113 
	C695.531006,1522.969238 709.833801,1524.318726 724.411499,1519.795288 
	C735.176086,1516.455078 744.112793,1510.443970 750.987000,1500.929321 
	C758.649719,1490.323364 762.188904,1478.442017 761.471558,1466.069336 
	C760.385986,1447.345703 751.117065,1432.579346 734.291138,1422.137695 
z"/>
<path fill="#000000" opacity="1.000000" stroke="none" 
	d="
M1348.980713,1486.011719 
	C1347.420898,1470.352417 1347.156982,1455.283081 1351.320068,1440.274536 
	C1358.543091,1414.234619 1373.327148,1393.253052 1394.613281,1377.299927 
	C1409.250366,1366.330444 1426.301270,1359.677124 1444.642578,1357.111816 
	C1465.045532,1354.258057 1484.657593,1357.494995 1503.930542,1364.442871 
	C1517.009644,1369.157959 1527.710693,1377.173706 1537.795898,1386.354126 
	C1549.681885,1397.173828 1557.975830,1410.148804 1564.354126,1425.002197 
	C1571.299316,1441.175659 1574.432861,1457.784180 1573.718262,1474.974731 
	C1572.980591,1492.721680 1567.618286,1509.265869 1558.834595,1525.044189 
	C1548.053955,1544.409790 1532.358765,1558.135498 1513.496338,1568.551636 
	C1502.580444,1574.579346 1490.482422,1577.985596 1478.126587,1579.935425 
	C1458.599609,1583.017090 1439.308716,1581.341675 1420.801758,1574.632324 
	C1410.588501,1570.929810 1401.393677,1565.047119 1392.405273,1558.535767 
	C1379.297119,1549.040405 1369.288818,1537.332397 1361.438843,1523.565308 
	C1354.883057,1512.067871 1351.323853,1499.434570 1348.980713,1486.011719 
M1408.966797,1479.396606 
	C1409.253662,1481.019287 1409.386719,1482.687622 1409.851196,1484.257812 
	C1414.535889,1500.096313 1424.322510,1511.293091 1439.667236,1517.807861 
	C1457.457642,1525.360840 1474.860840,1523.872070 1490.542603,1513.629883 
	C1513.117432,1498.885864 1520.627197,1471.257324 1509.391357,1446.513550 
	C1495.622559,1416.191772 1454.856445,1401.708130 1425.022461,1429.385742 
	C1417.704346,1436.175049 1411.082275,1443.906006 1409.960815,1454.402466 
	C1409.108398,1462.382812 1409.245483,1470.468750 1408.966797,1479.396606 
z"/>
<path fill="#000000" opacity="1.000000" stroke="none" 
	d="
M666.037231,1085.822632 
	C667.985779,1072.619141 670.018494,1059.880249 671.807739,1047.107178 
	C673.046997,1038.260376 673.894287,1029.359131 675.061462,1020.501221 
	C675.249512,1019.074280 676.194397,1017.747070 676.789429,1016.373779 
	C677.810059,1017.503296 679.256836,1018.462280 679.787048,1019.787903 
	C687.291809,1038.552246 694.419739,1057.470703 702.144897,1076.142700 
	C712.376160,1100.872070 723.054504,1125.416382 733.517151,1150.050293 
	C733.834595,1150.797729 733.768005,1151.708496 734.085388,1152.456055 
	C737.829041,1161.273804 738.794128,1163.400391 749.774231,1163.173218 
	C758.907776,1162.984253 768.055176,1163.417480 777.186401,1163.183716 
	C780.658386,1163.094971 782.403076,1164.489990 782.489624,1167.539551 
	C782.763428,1177.183716 782.869629,1186.838623 782.677063,1196.481934 
	C782.655518,1197.561157 780.305786,1199.511475 779.036804,1199.510620 
	C759.423523,1199.496948 739.810974,1199.144531 720.197327,1199.039429 
	C700.217773,1198.932251 680.237183,1198.972168 660.257263,1199.021606 
	C650.139221,1199.046631 650.445251,1199.163330 651.868774,1189.028320 
	C653.872070,1174.765747 655.259155,1160.417725 657.118774,1146.133423 
	C658.292908,1137.114136 659.883118,1128.149414 661.223938,1119.151001 
	C662.856262,1108.196655 664.422607,1097.232544 666.037231,1085.822632 
z"/>
<path fill="#000000" opacity="1.000000" stroke="none" 
	d="
M734.562866,1422.389404 
	C751.117065,1432.579346 760.385986,1447.345703 761.471558,1466.069336 
	C762.188904,1478.442017 758.649719,1490.323364 750.987000,1500.929321 
	C744.112793,1510.443970 735.176086,1516.455078 724.411499,1519.795288 
	C709.833801,1524.318726 695.531006,1522.969238 682.121338,1515.391113 
	C660.099121,1502.945923 649.704956,1478.408325 657.477722,1452.716309 
	C663.036438,1434.342651 676.081360,1422.972534 694.244263,1416.844238 
	C708.666687,1411.978027 721.577698,1415.596069 734.562866,1422.389404 
z"/>
<path fill="#000000" opacity="1.000000" stroke="none" 
	d="
M1408.954590,1478.952148 
	C1409.245483,1470.468750 1409.108398,1462.382812 1409.960815,1454.402466 
	C1411.082275,1443.906006 1417.704346,1436.175049 1425.022461,1429.385742 
	C1454.856445,1401.708130 1495.622559,1416.191772 1509.391357,1446.513550 
	C1520.627197,1471.257324 1513.117432,1498.885864 1490.542603,1513.629883 
	C1474.860840,1523.872070 1457.457642,1525.360840 1439.667236,1517.807861 
	C1424.322510,1511.293091 1414.535889,1500.096313 1409.851196,1484.257812 
	C1409.386719,1482.687622 1409.253662,1481.019287 1408.954590,1478.952148 
z"/>
</svg>