<svg version="1.1" id="Layer_1" xmlns="http://www.w3.org/2000/svg" xmlns:xlink="http://www.w3.org/1999/xlink" x="0px" y="0px"
	 width="100%" viewBox="0 0 2048 2048" enable-background="new 0 0 2048 2048" xml:space="preserve">
<path fill="#000000" opacity="1.000000" stroke="none" 
	d="
M1844.984253,904.071411 
	C1844.922852,895.429626 1844.861450,886.787781 1844.963867,877.202393 
	C1844.908447,855.430054 1844.853027,833.657654 1844.940308,810.971985 
	C1844.959229,767.474426 1845.008423,723.976929 1844.986572,680.479370 
	C1844.972534,652.652649 1844.853638,624.825928 1844.978394,596.080261 
	C1844.925171,566.430481 1844.871948,536.780640 1845.009766,506.193970 
	C1844.490356,476.992096 1847.076050,447.648621 1841.007202,418.699982 
	C1838.871338,408.512054 1837.500610,398.090454 1834.452271,388.184235 
	C1829.837158,373.186707 1824.206543,358.512939 1816.558838,344.673126 
	C1807.781372,328.788696 1798.859863,312.956635 1786.845947,299.302094 
	C1777.113892,288.240997 1766.759766,277.665009 1756.049438,267.542816 
	C1742.635742,254.865631 1727.289429,244.650131 1711.044312,235.954178 
	C1702.104248,231.168640 1692.754028,227.096924 1683.400391,223.149902 
	C1671.766357,218.240631 1659.853394,214.264038 1647.419189,211.548950 
	C1628.737427,207.469727 1609.841309,205.401291 1590.859619,205.155380 
	C1551.201538,204.641617 1511.532227,204.998383 1471.867554,204.997360 
	C1304.545288,204.993042 1137.223145,204.991562 969.900940,204.983521 
	C804.746033,204.975571 639.591125,204.937897 474.436218,204.991379 
	C460.680054,204.995819 446.899597,205.208649 433.178131,206.077911 
	C426.078064,206.527725 419.007080,208.326843 412.056305,210.053253 
	C398.434235,213.436661 384.576263,216.289886 371.435150,221.066269 
	C359.392303,225.443466 348.237549,232.220520 336.559387,237.656296 
	C323.082275,243.929398 311.515411,253.021088 300.138397,262.287231 
	C293.060211,268.052155 286.642303,274.680359 280.289551,281.269653 
	C272.938843,288.894043 265.111816,296.286743 259.062103,304.885040 
	C249.827026,318.010529 241.943604,332.086670 233.478088,345.754089 
	C225.231247,359.068481 220.829468,373.981812 215.983841,388.660645 
	C213.244293,396.959564 211.023239,405.522156 209.584290,414.135651 
	C207.561615,426.243347 205.288071,438.500183 205.201370,450.708008 
	C204.763535,512.353027 205.005875,574.002930 204.998734,635.651123 
	C204.987289,734.302795 204.949631,832.954407 204.961044,931.606079 
	C204.964737,963.433289 205.087967,995.260437 205.029037,1028.006226 
	C205.070969,1059.635010 205.112915,1091.263794 204.951828,1123.824219 
	C205.050003,1130.926758 205.148193,1138.029175 205.147308,1146.048096 
	C205.178604,1163.975586 205.209915,1181.903076 205.043213,1200.771240 
	C205.016754,1210.093506 204.957901,1219.415894 204.969528,1228.738159 
	C205.015411,1265.519653 205.083435,1302.301270 205.013428,1340.001709 
	C205.079681,1358.001953 205.145935,1376.002197 205.020111,1394.921997 
	C205.013245,1419.077515 204.978592,1443.232910 205.008347,1467.388428 
	C205.031937,1486.543091 205.134445,1505.697754 205.031250,1525.795288 
	C205.356003,1539.384521 205.174164,1553.011108 206.172546,1566.550659 
	C206.914932,1576.618164 208.559525,1586.724365 210.933868,1596.539795 
	C214.018188,1609.290161 217.650177,1621.976318 222.099701,1634.310181 
	C227.182236,1648.398926 232.436966,1662.591919 239.423920,1675.782471 
	C247.088303,1690.251709 256.613495,1703.762695 265.728729,1717.423828 
	C270.035522,1723.878418 274.900452,1730.059326 280.182465,1735.741455 
	C288.450439,1744.635864 297.143585,1753.152100 305.929352,1761.542847 
	C312.602661,1767.916138 319.276123,1774.428589 326.710266,1779.832642 
	C337.406311,1787.607666 348.844025,1794.355713 359.874664,1801.678345 
	C383.309143,1817.235352 409.301697,1827.143188 436.066864,1834.733643 
	C461.559174,1841.963135 487.688385,1845.185181 514.419006,1845.164551 
	C842.915894,1844.911987 1171.413086,1845.036621 1499.910156,1844.935913 
	C1528.669434,1844.927124 1557.573975,1847.049683 1586.067383,1840.984985 
	C1596.273804,1838.812622 1606.577637,1836.937500 1616.593750,1834.075562 
	C1626.173950,1831.338257 1635.700806,1828.080322 1644.781006,1824.004028 
	C1659.284058,1817.493164 1673.534790,1810.377197 1687.625610,1803.007080 
	C1696.146484,1798.550293 1704.379517,1793.449097 1712.342285,1788.048340 
	C1719.276978,1783.344971 1725.783325,1777.973511 1732.229126,1772.597656 
	C1736.827026,1768.762817 1741.109497,1764.530640 1745.360107,1760.302490 
	C1755.149536,1750.564331 1765.505859,1741.286255 1774.369141,1730.758301 
	C1782.949951,1720.566162 1789.815430,1708.945312 1797.677002,1698.128296 
	C1810.634033,1680.299927 1819.460205,1660.369873 1826.943848,1639.872925 
	C1833.543457,1621.796875 1838.456421,1603.260986 1841.323853,1584.077026 
	C1843.621460,1568.704956 1845.703613,1553.466553 1844.992188,1537.001587 
	C1844.943359,1525.370483 1844.894531,1513.739258 1844.972046,1501.178101 
	C1844.940918,1497.428467 1844.909790,1493.678711 1844.990967,1489.006592 
	C1844.942505,1469.041382 1844.894165,1449.076050 1844.972046,1428.166626 
	C1844.933594,1411.416626 1844.895020,1394.666504 1844.989136,1376.997925 
	C1844.991577,1357.842285 1845.010498,1338.686523 1844.992798,1319.530884 
	C1844.960938,1285.053711 1844.906982,1250.576660 1844.975952,1215.164429 
	C1844.937256,1211.082153 1844.898682,1207.000000 1844.977051,1201.997192 
	C1844.944214,1149.693848 1844.911377,1097.390503 1845.050659,1044.152466 
	C1844.992920,1022.410828 1844.935303,1000.669128 1844.967896,978.003174 
	C1844.922974,953.667969 1844.877930,929.332764 1844.984253,904.071411 
z"/>
<path fill="#8B8F90" opacity="1.000000" stroke="none" 
	d="
M205.246368,1145.131714 
	C205.148193,1138.029175 205.050003,1130.926758 205.264648,1123.010498 
	C205.691269,1121.544922 205.903976,1120.893188 205.904709,1120.241211 
	C205.938309,1090.457153 205.963409,1060.673218 205.936066,1030.889160 
	C205.934891,1029.621704 205.427887,1028.354858 205.156509,1027.087646 
	C205.087967,995.260437 204.964737,963.433289 204.961044,931.606079 
	C204.949631,832.954407 204.987289,734.302795 204.998734,635.651123 
	C205.005875,574.002930 204.763535,512.353027 205.201370,450.708008 
	C205.288071,438.500183 207.561615,426.243347 209.584290,414.135651 
	C211.023239,405.522156 213.244293,396.959564 215.983841,388.660645 
	C220.829468,373.981812 225.231247,359.068481 233.478088,345.754089 
	C241.943604,332.086670 249.827026,318.010529 259.062103,304.885040 
	C265.111816,296.286743 272.938843,288.894043 280.289551,281.269653 
	C286.642303,274.680359 293.060211,268.052155 300.138397,262.287231 
	C311.515411,253.021088 323.082275,243.929398 336.559387,237.656296 
	C348.237549,232.220520 359.392303,225.443466 371.435150,221.066269 
	C384.576263,216.289886 398.434235,213.436661 412.056305,210.053253 
	C419.007080,208.326843 426.078064,206.527725 433.178131,206.077911 
	C446.899597,205.208649 460.680054,204.995819 474.436218,204.991379 
	C639.591125,204.937897 804.746033,204.975571 969.900940,204.983521 
	C1137.223145,204.991562 1304.545288,204.993042 1471.867554,204.997360 
	C1511.532227,204.998383 1551.201538,204.641617 1590.859619,205.155380 
	C1609.841309,205.401291 1628.737427,207.469727 1647.419189,211.548950 
	C1659.853394,214.264038 1671.766357,218.240631 1683.400391,223.149902 
	C1692.754028,227.096924 1702.104248,231.168640 1711.044312,235.954178 
	C1727.289429,244.650131 1742.635742,254.865631 1756.049438,267.542816 
	C1766.759766,277.665009 1777.113892,288.240997 1786.845947,299.302094 
	C1798.859863,312.956635 1807.781372,328.788696 1816.558838,344.673126 
	C1824.206543,358.512939 1829.837158,373.186707 1834.452271,388.184235 
	C1837.500610,398.090454 1838.871338,408.512054 1841.007202,418.699982 
	C1847.076050,447.648621 1844.490356,476.992096 1844.697998,507.007294 
	C1844.256226,521.766846 1844.025513,535.713074 1844.022827,549.659302 
	C1844.019897,565.440674 1844.221680,581.222107 1844.261475,597.467163 
	C1844.133179,598.760132 1844.029541,599.589294 1844.029419,600.418518 
	C1844.015503,669.290771 1844.004517,738.163086 1844.036743,807.035339 
	C1844.037476,808.652100 1844.532837,810.268677 1844.797607,811.885315 
	C1844.853027,833.657654 1844.908447,855.430054 1844.718994,878.041992 
	C1844.372070,887.587219 1844.270020,896.292969 1844.114502,905.464844 
	C1844.049316,928.339172 1844.016968,950.747314 1844.063354,973.155334 
	C1844.067383,975.079895 1844.593750,977.003479 1844.877563,978.927490 
	C1844.935303,1000.669128 1844.992920,1022.410828 1844.713379,1044.943848 
	C1844.267578,1046.724731 1844.064819,1047.714355 1844.064331,1048.703979 
	C1844.041260,1098.848267 1844.029175,1148.992554 1844.062378,1199.136841 
	C1844.063232,1200.397217 1844.582642,1201.657471 1844.860107,1202.917725 
	C1844.898682,1207.000000 1844.937256,1211.082153 1844.642700,1215.937500 
	C1844.206421,1217.700317 1844.013794,1218.690063 1844.013428,1219.679810 
	C1843.994995,1271.005737 1843.985840,1322.331665 1844.025391,1373.657593 
	C1844.026489,1375.077393 1844.567505,1376.496826 1844.856567,1377.916504 
	C1844.895020,1394.666504 1844.933594,1411.416626 1844.663696,1428.965088 
	C1844.261353,1449.235352 1844.160278,1468.707153 1844.107422,1488.178955 
	C1844.105835,1488.761597 1844.610229,1489.345703 1844.878662,1489.929077 
	C1844.909790,1493.678711 1844.940918,1497.428467 1844.664185,1501.970459 
	C1844.241211,1511.568237 1844.047852,1520.373901 1844.055176,1529.179199 
	C1844.057617,1532.093262 1844.576904,1535.006836 1844.859863,1537.920654 
	C1845.703613,1553.466553 1843.621460,1568.704956 1841.323853,1584.077026 
	C1838.456421,1603.260986 1833.543457,1621.796875 1826.943848,1639.872925 
	C1819.460205,1660.369873 1810.634033,1680.299927 1797.677002,1698.128296 
	C1789.815430,1708.945312 1782.949951,1720.566162 1774.369141,1730.758301 
	C1765.505859,1741.286255 1755.149536,1750.564331 1745.360107,1760.302490 
	C1741.109497,1764.530640 1736.827026,1768.762817 1732.229126,1772.597656 
	C1725.783325,1777.973511 1719.276978,1783.344971 1712.342285,1788.048340 
	C1704.379517,1793.449097 1696.146484,1798.550293 1687.625610,1803.007080 
	C1673.534790,1810.377197 1659.284058,1817.493164 1644.781006,1824.004028 
	C1635.700806,1828.080322 1626.173950,1831.338257 1616.593750,1834.075562 
	C1606.577637,1836.937500 1596.273804,1838.812622 1586.067383,1840.984985 
	C1557.573975,1847.049683 1528.669434,1844.927124 1499.910156,1844.935913 
	C1171.413086,1845.036621 842.915894,1844.911987 514.419006,1845.164551 
	C487.688385,1845.185181 461.559174,1841.963135 436.066864,1834.733643 
	C409.301697,1827.143188 383.309143,1817.235352 359.874664,1801.678345 
	C348.844025,1794.355713 337.406311,1787.607666 326.710266,1779.832642 
	C319.276123,1774.428589 312.602661,1767.916138 305.929352,1761.542847 
	C297.143585,1753.152100 288.450439,1744.635864 280.182465,1735.741455 
	C274.900452,1730.059326 270.035522,1723.878418 265.728729,1717.423828 
	C256.613495,1703.762695 247.088303,1690.251709 239.423920,1675.782471 
	C232.436966,1662.591919 227.182236,1648.398926 222.099701,1634.310181 
	C217.650177,1621.976318 214.018188,1609.290161 210.933868,1596.539795 
	C208.559525,1586.724365 206.914932,1576.618164 206.172546,1566.550659 
	C205.174164,1553.011108 205.356003,1539.384521 205.276276,1524.954834 
	C205.682709,1521.969238 205.982742,1519.824463 205.984802,1517.679321 
	C206.016586,1484.761353 206.030624,1451.843506 205.996857,1418.925537 
	C205.988327,1410.620728 205.798157,1402.316162 205.762680,1393.546387 
	C205.881302,1376.166260 205.944183,1359.251099 205.940033,1342.335938 
	C205.939758,1341.251587 205.420868,1340.167114 205.143234,1339.082764 
	C205.083435,1302.301270 205.015411,1265.519653 204.969528,1228.738159 
	C204.957901,1219.415894 205.016754,1210.093506 204.873886,1199.934204 
	C204.961502,1197.470215 205.442627,1195.843018 205.440689,1194.216309 
	C205.421310,1177.854736 205.322693,1161.493286 205.246368,1145.131714 
M594.295044,1199.159790 
	C573.894958,1199.108521 553.487610,1198.712524 533.097473,1199.137207 
	C521.138489,1199.386230 517.071350,1201.959473 515.304932,1212.007812 
	C514.226196,1218.144287 515.078674,1224.633789 515.186951,1230.962524 
	C515.408630,1243.917725 515.871704,1256.871338 515.886414,1269.825928 
	C515.890747,1273.653442 513.798218,1276.281616 509.234741,1276.048340 
	C504.746735,1275.819092 500.232666,1275.864990 495.739624,1276.038208 
	C491.624237,1276.196777 489.868225,1274.897339 489.902618,1270.344604 
	C490.091553,1245.348022 489.953094,1220.348999 489.968048,1195.350830 
	C489.976166,1181.795532 482.416595,1173.424683 469.057465,1173.073608 
	C456.566895,1172.745483 444.055176,1172.772217 431.563263,1173.075195 
	C420.393250,1173.346191 414.424652,1177.319336 412.085876,1190.656006 
	C411.281952,1195.240234 412.057892,1200.086060 411.929047,1204.807495 
	C411.724548,1212.301758 411.088287,1219.793091 411.125977,1227.283325 
	C411.231537,1248.270874 411.746582,1269.256958 411.790283,1290.244263 
	C411.819000,1304.034424 411.096985,1317.825928 411.107635,1331.616577 
	C411.116852,1343.511841 411.634888,1355.408447 412.070435,1367.299316 
	C412.127594,1368.859619 412.810028,1370.510254 413.579620,1371.912109 
	C417.499115,1379.051758 424.261902,1381.618408 431.750427,1381.889160 
	C442.896973,1382.292358 454.071289,1382.137085 465.229218,1381.948242 
	C473.652863,1381.805664 481.912537,1380.876709 487.432983,1373.155273 
	C487.825531,1372.606201 488.728333,1372.421997 489.625671,1371.944946 
	C490.115601,1374.757568 490.874847,1377.170044 490.900726,1379.590576 
	C491.037201,1392.336670 490.783630,1405.090698 491.154419,1417.827759 
	C491.242401,1420.850464 492.751495,1424.103027 494.403687,1426.753174 
	C497.980682,1432.490601 504.324463,1431.465698 509.629059,1431.312134 
	C513.975891,1431.186279 514.989685,1432.718628 514.990662,1436.265869 
	C515.001343,1475.763550 514.973572,1515.261108 515.036804,1554.758667 
	C515.043030,1558.674561 513.299622,1560.002686 509.581879,1560.060791 
	C505.638367,1560.122192 501.666229,1560.452881 497.771423,1561.072998 
	C490.647919,1562.207275 486.101440,1569.660400 489.887573,1575.019043 
	C491.943146,1577.928223 496.323700,1580.079712 499.989990,1580.754028 
	C505.206390,1581.713379 510.730530,1581.000000 516.123169,1580.999878 
	C530.659607,1580.999512 545.196472,1581.056396 559.732361,1580.969116 
	C565.510132,1580.934326 570.423950,1577.403564 570.974854,1573.254028 
	C571.654236,1568.136719 568.314087,1562.746826 562.746033,1561.187744 
	C559.315247,1560.227051 555.584106,1560.136719 551.978149,1560.047363 
	C545.103943,1559.877197 544.503174,1559.435913 544.017517,1552.489502 
	C543.959595,1551.660034 544.000793,1550.823486 544.000793,1549.990234 
	C544.000305,1514.992310 543.954346,1479.994263 544.060486,1444.996582 
	C544.073242,1440.775391 544.909119,1436.556396 545.400208,1431.995239 
	C550.525513,1431.995239 555.334045,1431.802979 560.118958,1432.056641 
	C563.862549,1432.255249 566.176636,1430.926270 568.182312,1427.690552 
	C575.340637,1416.142212 582.775330,1404.764648 590.147827,1393.349854 
	C599.908386,1378.237793 610.154480,1363.417969 619.376587,1347.985352 
	C630.309082,1329.690552 645.803284,1321.434204 667.084534,1321.851440 
	C697.154053,1322.441162 727.244385,1321.911865 757.324158,1322.110596 
	C762.029907,1322.141724 767.009216,1322.744629 771.371277,1324.386597 
	C781.504333,1328.201050 789.216614,1335.211060 794.871094,1344.520874 
	C800.203857,1353.301147 805.658142,1362.010742 811.225403,1370.644165 
	C815.342957,1377.029541 819.857178,1383.159546 823.957458,1389.555542 
	C828.204651,1396.180542 832.030151,1403.075928 836.280945,1409.698486 
	C844.792480,1422.958984 853.762085,1435.936279 861.907532,1449.414307 
	C864.546875,1453.781494 867.284790,1455.094971 872.088318,1455.088989 
	C966.582031,1454.970703 1061.075928,1455.002197 1155.569824,1454.996826 
	C1202.731445,1454.994019 1249.893311,1455.008545 1297.054565,1454.873047 
	C1299.294189,1454.866577 1302.392944,1454.161255 1303.617798,1452.614258 
	C1308.908325,1445.932617 1313.923950,1438.992310 1318.530518,1431.819092 
	C1326.842163,1418.876953 1334.690063,1405.638184 1342.914429,1392.638916 
	C1353.161621,1376.442017 1363.721313,1360.442017 1373.907959,1344.207642 
	C1382.873291,1329.919800 1395.539795,1322.157715 1412.415771,1322.052979 
	C1442.746094,1321.864746 1473.085938,1322.410400 1503.407471,1321.861328 
	C1525.008789,1321.469971 1539.184326,1331.679565 1549.145630,1349.879883 
	C1553.354492,1357.570312 1558.512207,1364.745361 1563.307617,1372.109741 
	C1570.534790,1383.208618 1577.872314,1394.235840 1585.067505,1405.355347 
	C1590.134766,1413.186035 1594.965820,1421.170776 1600.111328,1428.948242 
	C1600.831665,1430.036987 1602.735107,1430.873779 1604.113770,1430.908203 
	C1611.667603,1431.097046 1619.228638,1431.029907 1626.786987,1430.991089 
	C1634.547119,1430.951294 1638.962769,1426.482422 1638.991821,1418.636597 
	C1639.025879,1409.470581 1639.042114,1400.304077 1638.986938,1391.138306 
	C1638.938232,1383.046387 1633.844727,1378.003296 1625.855713,1378.000122 
	C1623.689209,1377.999268 1621.503540,1377.815430 1619.359863,1378.036377 
	C1614.353638,1378.552612 1612.962280,1375.814697 1612.989014,1371.482300 
	C1613.034668,1364.079346 1612.906860,1356.674316 1613.029419,1349.273071 
	C1613.128174,1343.313599 1613.726440,1337.357056 1613.685791,1331.401978 
	C1613.592773,1317.772217 1613.426392,1304.137451 1612.902100,1290.519531 
	C1612.717163,1285.718384 1611.792603,1280.854004 1610.518555,1276.207031 
	C1608.332886,1268.234253 1602.340454,1264.310669 1594.514404,1263.039795 
	C1588.338135,1262.036987 1582.115845,1261.310181 1575.907104,1260.515381 
	C1563.991821,1258.989868 1552.074097,1257.482544 1540.152588,1256.006470 
	C1530.352295,1254.793091 1520.541138,1253.668823 1510.742432,1252.443115 
	C1501.917847,1251.339233 1493.113647,1250.067505 1484.282471,1249.022339 
	C1474.305298,1247.841675 1464.293579,1246.948853 1454.323364,1245.716064 
	C1442.572021,1244.263184 1430.837036,1242.663330 1419.118408,1240.965820 
	C1412.028809,1239.938721 1403.297485,1241.596802 1401.517700,1231.037476 
	C1401.300415,1229.748169 1401.042725,1228.442017 1400.598511,1227.218140 
	C1394.397095,1210.136475 1388.204590,1193.051270 1381.918335,1176.000732 
	C1376.056152,1160.100586 1370.124390,1144.225708 1364.149658,1128.367554 
	C1359.082886,1114.919312 1353.749878,1111.864502 1340.473267,1111.906860 
	C1275.645386,1112.114258 1210.815186,1112.222534 1145.989624,1111.788330 
	C1134.764404,1111.713257 1127.873657,1119.793457 1127.947876,1129.966797 
	C1128.121704,1153.795532 1128.027588,1177.626343 1128.027832,1201.456299 
	C1128.028076,1224.454834 1127.904175,1247.454102 1128.092163,1270.451050 
	C1128.128540,1274.908936 1126.688599,1276.318848 1122.349609,1276.076294 
	C1116.700806,1275.760620 1111.019287,1275.906250 1105.355591,1276.028198 
	C1101.382690,1276.113647 1099.876221,1274.575806 1099.920044,1270.431519 
	C1100.108154,1252.601196 1100.131226,1234.765991 1099.890869,1216.937012 
	C1099.841797,1213.306396 1098.958130,1209.442139 1097.472046,1206.128052 
	C1094.596069,1199.714355 1088.462524,1199.030518 1082.345337,1199.027222 
	C1049.746216,1199.009521 1017.147095,1199.052002 984.547974,1199.061646 
	C971.888245,1199.065430 959.228455,1199.011230 946.568848,1199.047607 
	C943.962158,1199.055054 942.662720,1198.511108 941.798767,1195.458618 
	C939.306885,1186.655029 936.267456,1177.989136 933.063843,1169.410889 
	C931.160583,1164.314819 931.817017,1163.005127 937.518188,1163.004639 
	C972.848816,1163.001587 1008.180237,1162.875244 1043.509277,1163.114136 
	C1049.988647,1163.157959 1054.314331,1160.610840 1058.066528,1155.764038 
	C1064.916138,1146.916016 1072.055420,1138.292603 1078.940552,1129.471436 
	C1083.138794,1124.092896 1085.444580,1118.845459 1082.211182,1111.403076 
	C1072.806763,1089.756836 1064.338867,1067.705200 1055.383667,1045.861816 
	C1050.734985,1034.523071 1045.778442,1023.310974 1041.061035,1012.000000 
	C1036.656738,1001.440125 1032.451294,990.797363 1028.036255,980.242065 
	C1023.177551,968.625671 1018.149292,957.080261 1013.250793,945.480347 
	C1008.231873,933.595337 1003.300293,921.673401 998.290955,909.784302 
	C995.939026,904.202209 993.384460,898.703674 991.112610,893.089966 
	C985.162476,878.387634 979.372253,863.620544 973.406006,848.924805 
	C970.638611,842.108215 967.508545,835.439392 964.717834,828.631897 
	C955.703979,806.644470 946.844971,784.593323 937.780212,762.627014 
	C932.302734,749.353882 926.482361,736.222717 920.947937,722.972656 
	C915.230408,709.284363 909.623413,695.549316 904.062866,681.796387 
	C900.581787,673.186707 897.176270,664.543640 893.915344,655.848633 
	C889.448486,643.937744 886.766296,641.999878 873.909485,641.999878 
	C776.581970,641.999878 679.254333,642.051025 581.927185,641.866821 
	C576.364868,641.856262 572.769531,644.181641 569.636353,647.959900 
	C562.431580,656.647888 555.658081,665.708679 548.183594,674.152649 
	C542.681824,680.368042 541.889038,687.436340 544.414062,694.358643 
	C549.846313,709.250916 556.193359,723.812073 562.266174,738.467285 
	C570.582031,758.535950 578.986877,778.567749 587.361877,798.611816 
	C590.823547,806.896729 594.300598,815.175293 597.781494,823.452087 
	C600.183655,829.163818 602.654175,834.847351 605.006775,840.579346 
	C610.514343,853.997986 615.892822,867.470215 621.472778,880.858521 
	C625.162842,889.712158 629.182617,898.427795 632.926575,907.259521 
	C637.577576,918.230835 642.168091,929.229065 646.649048,940.270691 
	C650.158630,948.918884 655.183716,957.058960 653.117126,967.274963 
	C651.066956,977.410278 650.004578,987.745667 648.516968,997.994446 
	C647.006409,1008.401123 645.505249,1018.809143 644.000549,1029.216675 
	C642.683533,1038.325806 641.381348,1047.437134 640.046753,1056.543701 
	C638.379150,1067.922852 636.623840,1079.289429 635.019958,1090.677490 
	C633.460083,1101.753540 632.102722,1112.858276 630.546753,1123.934937 
	C629.106934,1134.184204 627.433228,1144.400635 626.027710,1154.654297 
	C624.799072,1163.617554 623.809631,1172.613647 622.695740,1181.592773 
	C622.149658,1185.994507 621.473328,1190.381958 621.019958,1194.792725 
	C620.676758,1198.131714 619.103271,1199.960083 615.653748,1199.851807 
	C608.846436,1199.638062 602.040222,1199.386353 594.295044,1199.159790 
M1375.028687,706.576355 
	C1376.599609,710.877319 1378.404175,715.109009 1379.703491,719.490417 
	C1388.165527,748.025146 1396.298218,776.646301 1399.093262,806.441528 
	C1400.802734,824.665771 1403.079834,842.876648 1403.766846,861.143799 
	C1404.281860,874.836731 1402.878052,888.624207 1401.932983,902.342407 
	C1401.218872,912.708435 1400.423218,923.125244 1398.658569,933.345886 
	C1397.057983,942.615784 1398.132202,951.029846 1403.296387,958.751648 
	C1410.223145,969.109131 1420.158569,973.307129 1432.553711,973.099548 
	C1444.949951,972.891846 1458.906860,962.788269 1461.005615,948.959412 
	C1462.090088,941.814087 1463.244263,934.671143 1464.027954,927.490234 
	C1465.478760,914.198120 1467.305542,900.903442 1467.828003,887.564880 
	C1468.486450,870.759277 1468.217651,853.904419 1467.902344,837.079163 
	C1467.751099,829.013855 1466.871704,820.927490 1465.790771,812.922485 
	C1464.099609,800.399109 1462.196899,787.893311 1459.941895,775.460205 
	C1457.455322,761.749390 1455.327271,747.883057 1451.496094,734.528320 
	C1446.082153,715.656433 1439.743164,697.007080 1432.869995,678.609924 
	C1427.126099,663.235474 1421.091797,647.795471 1413.311523,633.397339 
	C1402.067871,612.589661 1389.716187,592.313843 1376.757324,572.518066 
	C1362.780273,551.167053 1346.171997,531.721436 1328.534302,513.296997 
	C1317.928833,502.218475 1306.661133,491.694733 1295.012329,481.713745 
	C1279.702148,468.595428 1264.192139,455.611755 1247.890015,443.779877 
	C1234.078491,433.755676 1219.309082,424.939423 1204.442261,416.508026 
	C1183.417603,404.584442 1161.244385,394.989655 1138.314575,387.302795 
	C1122.205078,381.902344 1109.204956,385.140045 1099.886108,400.747406 
	C1089.823120,417.601227 1096.269287,436.205200 1111.755615,444.792114 
	C1117.272095,447.850800 1123.682617,449.248077 1129.460571,451.893982 
	C1142.859253,458.029572 1156.652588,463.557953 1169.315796,470.986237 
	C1189.126343,482.607208 1208.542603,495.014984 1227.334351,508.216156 
	C1239.139404,516.509033 1250.020874,526.324768 1260.376343,536.421692 
	C1274.300659,549.998230 1288.196289,563.785950 1300.489624,578.804565 
	C1314.090576,595.420654 1326.750366,612.974609 1338.175781,631.153442 
	C1348.199341,647.101746 1356.161865,664.372803 1364.607300,681.273193 
	C1368.562500,689.187805 1371.511108,697.605408 1375.028687,706.576355 
M1117.519653,591.991943 
	C1119.351562,593.092712 1121.193604,594.176819 1123.013672,595.296997 
	C1137.778687,604.384644 1152.034668,614.171448 1164.646484,626.152954 
	C1173.924805,634.967346 1183.646729,643.401184 1192.161987,652.908447 
	C1201.063354,662.846680 1209.401123,673.436157 1216.808594,684.526917 
	C1225.110474,696.956726 1232.437012,710.082703 1239.528076,723.260864 
	C1244.221924,731.983948 1248.142090,741.182861 1251.701904,750.440430 
	C1255.547241,760.440735 1259.106079,770.617432 1261.808716,780.973328 
	C1264.802002,792.443054 1267.129028,804.134705 1268.921631,815.855835 
	C1270.619629,826.957825 1271.239136,838.224121 1272.351562,849.416321 
	C1274.213623,868.151428 1273.664673,887.042053 1270.077637,905.291077 
	C1265.788452,927.112671 1277.474976,943.809631 1295.972290,947.631775 
	C1312.030029,950.949829 1328.875000,941.250305 1331.727417,924.035889 
	C1334.450073,907.604614 1335.734497,890.882019 1336.706299,874.232300 
	C1337.343140,863.321838 1336.332520,852.312256 1336.001465,841.348755 
	C1335.273926,817.262817 1330.739258,793.721497 1325.157349,770.405273 
	C1318.325195,741.867371 1308.147827,714.436218 1294.018677,688.727173 
	C1285.141846,672.575012 1274.946045,657.114807 1264.797119,641.702942 
	C1251.555664,621.595093 1235.001343,604.082520 1217.528198,587.817749 
	C1202.237549,573.584473 1185.185425,561.094788 1168.086914,549.000427 
	C1155.073486,539.795471 1141.058228,531.867981 1126.941284,524.408142 
	C1116.345459,518.808899 1105.025269,514.465881 1093.765869,510.264893 
	C1078.211914,504.461609 1063.494507,508.595337 1054.601074,523.223633 
	C1046.264038,536.936890 1049.064331,553.063904 1062.023193,563.120667 
	C1069.256104,568.733704 1078.490234,571.757690 1086.794800,576.002686 
	C1096.860352,581.147888 1106.896606,586.350464 1117.519653,591.991943 
M635.090637,1382.455078 
	C628.840332,1389.154907 621.991394,1395.406128 616.527893,1402.695679 
	C612.104675,1408.597290 609.538574,1415.858032 605.810242,1422.320679 
	C599.526367,1433.212769 596.173950,1445.114136 595.244324,1457.392822 
	C593.710693,1477.650024 596.234741,1497.375610 605.418274,1516.004395 
	C613.803955,1533.015137 624.876709,1547.516235 640.230347,1558.869873 
	C654.089539,1569.118530 669.257812,1575.701538 686.128540,1579.301880 
	C696.876465,1581.595703 707.534790,1581.950562 718.195435,1580.825439 
	C727.452393,1579.848389 737.091675,1578.685669 745.583191,1575.212158 
	C756.617920,1570.698242 767.118286,1564.465576 777.068909,1557.807251 
	C793.417114,1546.868286 804.322876,1531.211914 812.291748,1513.396362 
	C816.769043,1503.386719 819.002563,1492.938354 820.239929,1482.029419 
	C822.192078,1464.819702 821.078979,1447.879272 815.065613,1431.839600 
	C806.064941,1407.831787 791.813049,1387.846802 769.081726,1374.121948 
	C755.613831,1365.990356 741.887390,1360.336548 726.392273,1357.773193 
	C709.427795,1354.966431 693.131958,1355.818359 676.558899,1360.551758 
	C661.269165,1364.918457 647.958984,1372.312378 635.090637,1382.455078 
M1348.990967,1486.453247 
	C1351.323853,1499.434570 1354.883057,1512.067871 1361.438843,1523.565308 
	C1369.288818,1537.332397 1379.297119,1549.040405 1392.405273,1558.535767 
	C1401.393677,1565.047119 1410.588501,1570.929810 1420.801758,1574.632324 
	C1439.308716,1581.341675 1458.599609,1583.017090 1478.126587,1579.935425 
	C1490.482422,1577.985596 1502.580444,1574.579346 1513.496338,1568.551636 
	C1532.358765,1558.135498 1548.053955,1544.409790 1558.834595,1525.044189 
	C1567.618286,1509.265869 1572.980591,1492.721680 1573.718262,1474.974731 
	C1574.432861,1457.784180 1571.299316,1441.175659 1564.354126,1425.002197 
	C1557.975830,1410.148804 1549.681885,1397.173828 1537.795898,1386.354126 
	C1527.710693,1377.173706 1517.009644,1369.157959 1503.930542,1364.442871 
	C1484.657593,1357.494995 1465.045532,1354.258057 1444.642578,1357.111816 
	C1426.301270,1359.677124 1409.250366,1366.330444 1394.613281,1377.299927 
	C1373.327148,1393.253052 1358.543091,1414.234619 1351.320068,1440.274536 
	C1347.156982,1455.283081 1347.420898,1470.352417 1348.990967,1486.453247 
M1006.353210,649.127380 
	C1003.520447,656.974548 1002.865967,664.924072 1005.992798,672.790039 
	C1010.306946,683.642944 1018.951721,689.788330 1029.437256,694.012878 
	C1047.289429,701.205261 1063.290039,711.638245 1077.571167,724.322388 
	C1092.760742,737.813293 1106.683838,752.665894 1116.349731,770.844116 
	C1120.865723,779.337158 1125.271362,787.948364 1128.885254,796.847839 
	C1134.472534,810.606689 1137.453125,825.020142 1139.432495,839.814392 
	C1141.587158,855.917603 1141.676514,871.912537 1139.676147,887.853943 
	C1138.295654,898.856323 1142.501831,907.267578 1149.436890,914.606628 
	C1156.592773,922.179199 1165.828857,924.358276 1176.326172,924.244202 
	C1186.755005,924.130859 1198.440552,913.410706 1200.711304,906.444153 
	C1203.424194,898.121460 1205.299805,889.258179 1205.794678,880.530090 
	C1207.299561,853.992310 1205.389893,827.645447 1198.425171,801.851562 
	C1191.307739,775.492249 1180.869995,750.572693 1165.328125,728.012573 
	C1155.094971,713.158386 1144.817017,698.156616 1130.834839,686.544312 
	C1116.033813,674.251892 1100.941284,662.198242 1085.117310,651.285645 
	C1072.766235,642.768066 1059.010376,636.577271 1044.642334,631.541321 
	C1029.727295,626.313538 1011.366394,635.897522 1006.353210,649.127380 
z"/>
<path fill="#DDDFDD" opacity="1.000000" stroke="none" 
	d="
M1844.868896,811.428650 
	C1844.532837,810.268677 1844.037476,808.652100 1844.036743,807.035339 
	C1844.004517,738.163086 1844.015503,669.290771 1844.029419,600.418518 
	C1844.029541,599.589294 1844.133179,598.760132 1844.373291,597.465881 
	C1844.558105,597.000854 1844.781860,596.999207 1844.781860,596.999207 
	C1844.853638,624.825928 1844.972534,652.652649 1844.986572,680.479370 
	C1845.008423,723.976929 1844.959229,767.474426 1844.868896,811.428650 
z"/>
<path fill="#DDDDDD" opacity="1.000000" stroke="none" 
	d="
M1844.922852,1377.457275 
	C1844.567505,1376.496826 1844.026489,1375.077393 1844.025391,1373.657593 
	C1843.985840,1322.331665 1843.994995,1271.005737 1844.013428,1219.679810 
	C1844.013794,1218.690063 1844.206421,1217.700317 1844.585938,1216.405029 
	C1844.906982,1250.576660 1844.960938,1285.053711 1844.992798,1319.530884 
	C1845.010498,1338.686523 1844.991577,1357.842285 1844.922852,1377.457275 
z"/>
<path fill="#DDDEDE" opacity="1.000000" stroke="none" 
	d="
M1844.918579,1202.457520 
	C1844.582642,1201.657471 1844.063232,1200.397217 1844.062378,1199.136841 
	C1844.029175,1148.992554 1844.041260,1098.848267 1844.064331,1048.703979 
	C1844.064819,1047.714355 1844.267578,1046.724731 1844.627197,1045.411133 
	C1844.911377,1097.390503 1844.944214,1149.693848 1844.918579,1202.457520 
z"/>
<path fill="#DDDEDF" opacity="1.000000" stroke="none" 
	d="
M205.691467,1394.011475 
	C205.798157,1402.316162 205.988327,1410.620728 205.996857,1418.925537 
	C206.030624,1451.843506 206.016586,1484.761353 205.984802,1517.679321 
	C205.982742,1519.824463 205.682709,1521.969238 205.361603,1524.483398 
	C205.134445,1505.697754 205.031937,1486.543091 205.008347,1467.388428 
	C204.978592,1443.232910 205.013245,1419.077515 205.235931,1394.466309 
	C205.451752,1394.010742 205.691467,1394.011475 205.691467,1394.011475 
z"/>
<path fill="#D9DBDA" opacity="1.000000" stroke="none" 
	d="
M205.092773,1027.546875 
	C205.427887,1028.354858 205.934891,1029.621704 205.936066,1030.889160 
	C205.963409,1060.673218 205.938309,1090.457153 205.904709,1120.241211 
	C205.903976,1120.893188 205.691269,1121.544922 205.366150,1122.544678 
	C205.112915,1091.263794 205.070969,1059.635010 205.092773,1027.546875 
z"/>
<path fill="#DEDEDC" opacity="1.000000" stroke="none" 
	d="
M1844.880127,596.539734 
	C1844.781860,596.999207 1844.558105,597.000854 1844.446289,597.002197 
	C1844.221680,581.222107 1844.019897,565.440674 1844.022827,549.659302 
	C1844.025513,535.713074 1844.256226,521.766846 1844.602417,507.475739 
	C1844.871948,536.780640 1844.925171,566.430481 1844.880127,596.539734 
z"/>
<path fill="#DDDDDD" opacity="1.000000" stroke="none" 
	d="
M1844.922729,978.465332 
	C1844.593750,977.003479 1844.067383,975.079895 1844.063354,973.155334 
	C1844.016968,950.747314 1844.049316,928.339172 1844.280762,905.464600 
	C1844.500488,904.998230 1844.832886,904.997559 1844.832886,904.997559 
	C1844.877930,929.332764 1844.922974,953.667969 1844.922729,978.465332 
z"/>
<path fill="#DCDDDC" opacity="1.000000" stroke="none" 
	d="
M1844.934814,1489.467773 
	C1844.610229,1489.345703 1844.105835,1488.761597 1844.107422,1488.178955 
	C1844.160278,1468.707153 1844.261353,1449.235352 1844.600586,1429.437256 
	C1844.894165,1449.076050 1844.942505,1469.041382 1844.934814,1489.467773 
z"/>
<path fill="#DADCDE" opacity="1.000000" stroke="none" 
	d="
M205.762680,1393.546387 
	C205.691467,1394.011475 205.451752,1394.010742 205.331970,1394.006592 
	C205.145935,1376.002197 205.079681,1358.001953 205.078339,1339.542236 
	C205.420868,1340.167114 205.939758,1341.251587 205.940033,1342.335938 
	C205.944183,1359.251099 205.881302,1376.166260 205.762680,1393.546387 
z"/>
<path fill="#D9DBDA" opacity="1.000000" stroke="none" 
	d="
M205.196838,1145.589844 
	C205.322693,1161.493286 205.421310,1177.854736 205.440689,1194.216309 
	C205.442627,1195.843018 204.961502,1197.470215 204.972885,1199.463867 
	C205.209915,1181.903076 205.178604,1163.975586 205.196838,1145.589844 
z"/>
<path fill="#D9DBDA" opacity="1.000000" stroke="none" 
	d="
M1844.926025,1537.461182 
	C1844.576904,1535.006836 1844.057617,1532.093262 1844.055176,1529.179199 
	C1844.047852,1520.373901 1844.241211,1511.568237 1844.601074,1502.435547 
	C1844.894531,1513.739258 1844.943359,1525.370483 1844.926025,1537.461182 
z"/>
<path fill="#DDDEDE" opacity="1.000000" stroke="none" 
	d="
M1844.908569,904.534485 
	C1844.832886,904.997559 1844.500488,904.998230 1844.334229,904.998413 
	C1844.270020,896.292969 1844.372070,887.587219 1844.637085,878.513794 
	C1844.861450,886.787781 1844.922852,895.429626 1844.908569,904.534485 
z"/>
<path fill="#121B20" opacity="1.000000" stroke="none" 
	d="
M594.764282,1199.155029 
	C602.040222,1199.386353 608.846436,1199.638062 615.653748,1199.851807 
	C619.103271,1199.960083 620.676758,1198.131714 621.019958,1194.792725 
	C621.473328,1190.381958 622.149658,1185.994507 622.695740,1181.592773 
	C623.809631,1172.613647 624.799072,1163.617554 626.027710,1154.654297 
	C627.433228,1144.400635 629.106934,1134.184204 630.546753,1123.934937 
	C632.102722,1112.858276 633.460083,1101.753540 635.019958,1090.677490 
	C636.623840,1079.289429 638.379150,1067.922852 640.046753,1056.543701 
	C641.381348,1047.437134 642.683533,1038.325806 644.000549,1029.216675 
	C645.505249,1018.809143 647.006409,1008.401123 648.516968,997.994446 
	C650.004578,987.745667 651.066956,977.410278 653.117126,967.274963 
	C655.183716,957.058960 650.158630,948.918884 646.649048,940.270691 
	C642.168091,929.229065 637.577576,918.230835 632.926575,907.259521 
	C629.182617,898.427795 625.162842,889.712158 621.472778,880.858521 
	C615.892822,867.470215 610.514343,853.997986 605.006775,840.579346 
	C602.654175,834.847351 600.183655,829.163818 597.781494,823.452087 
	C594.300598,815.175293 590.823547,806.896729 587.361877,798.611816 
	C578.986877,778.567749 570.582031,758.535950 562.266174,738.467285 
	C556.193359,723.812073 549.846313,709.250916 544.414062,694.358643 
	C541.889038,687.436340 542.681824,680.368042 548.183594,674.152649 
	C555.658081,665.708679 562.431580,656.647888 569.636353,647.959900 
	C572.769531,644.181641 576.364868,641.856262 581.927185,641.866821 
	C679.254333,642.051025 776.581970,641.999878 873.909485,641.999878 
	C886.766296,641.999878 889.448486,643.937744 893.915344,655.848633 
	C897.176270,664.543640 900.581787,673.186707 904.062866,681.796387 
	C909.623413,695.549316 915.230408,709.284363 920.947937,722.972656 
	C926.482361,736.222717 932.302734,749.353882 937.780212,762.627014 
	C946.844971,784.593323 955.703979,806.644470 964.717834,828.631897 
	C967.508545,835.439392 970.638611,842.108215 973.406006,848.924805 
	C979.372253,863.620544 985.162476,878.387634 991.112610,893.089966 
	C993.384460,898.703674 995.939026,904.202209 998.290955,909.784302 
	C1003.300293,921.673401 1008.231873,933.595337 1013.250793,945.480347 
	C1018.149292,957.080261 1023.177551,968.625671 1028.036255,980.242065 
	C1032.451294,990.797363 1036.656738,1001.440125 1041.061035,1012.000000 
	C1045.778442,1023.310974 1050.734985,1034.523071 1055.383667,1045.861816 
	C1064.338867,1067.705200 1072.806763,1089.756836 1082.211182,1111.403076 
	C1085.444580,1118.845459 1083.138794,1124.092896 1078.940552,1129.471436 
	C1072.055420,1138.292603 1064.916138,1146.916016 1058.066528,1155.764038 
	C1054.314331,1160.610840 1049.988647,1163.157959 1043.509277,1163.114136 
	C1008.180237,1162.875244 972.848816,1163.001587 937.518188,1163.004639 
	C931.817017,1163.005127 931.160583,1164.314819 933.063843,1169.410889 
	C936.267456,1177.989136 939.306885,1186.655029 941.798767,1195.458618 
	C942.662720,1198.511108 943.962158,1199.055054 946.568848,1199.047607 
	C959.228455,1199.011230 971.888245,1199.065430 984.547974,1199.061646 
	C1017.147095,1199.052002 1049.746216,1199.009521 1082.345337,1199.027222 
	C1088.462524,1199.030518 1094.596069,1199.714355 1097.472046,1206.128052 
	C1098.958130,1209.442139 1099.841797,1213.306396 1099.890869,1216.937012 
	C1100.131226,1234.765991 1100.108154,1252.601196 1099.920044,1270.431519 
	C1099.876221,1274.575806 1101.382690,1276.113647 1105.355591,1276.028198 
	C1111.019287,1275.906250 1116.700806,1275.760620 1122.349609,1276.076294 
	C1126.688599,1276.318848 1128.128540,1274.908936 1128.092163,1270.451050 
	C1127.904175,1247.454102 1128.028076,1224.454834 1128.027832,1201.456299 
	C1128.027588,1177.626343 1128.121704,1153.795532 1127.947876,1129.966797 
	C1127.873657,1119.793457 1134.764404,1111.713257 1145.989624,1111.788330 
	C1210.815186,1112.222534 1275.645386,1112.114258 1340.473267,1111.906860 
	C1353.749878,1111.864502 1359.082886,1114.919312 1364.149658,1128.367554 
	C1370.124390,1144.225708 1376.056152,1160.100586 1381.918335,1176.000732 
	C1388.204590,1193.051270 1394.397095,1210.136475 1400.598511,1227.218140 
	C1401.042725,1228.442017 1401.300415,1229.748169 1401.517700,1231.037476 
	C1403.297485,1241.596802 1412.028809,1239.938721 1419.118408,1240.965820 
	C1430.837036,1242.663330 1442.572021,1244.263184 1454.323364,1245.716064 
	C1464.293579,1246.948853 1474.305298,1247.841675 1484.282471,1249.022339 
	C1493.113647,1250.067505 1501.917847,1251.339233 1510.742432,1252.443115 
	C1520.541138,1253.668823 1530.352295,1254.793091 1540.152588,1256.006470 
	C1552.074097,1257.482544 1563.991821,1258.989868 1575.907104,1260.515381 
	C1582.115845,1261.310181 1588.338135,1262.036987 1594.514404,1263.039795 
	C1602.340454,1264.310669 1608.332886,1268.234253 1610.518555,1276.207031 
	C1611.792603,1280.854004 1612.717163,1285.718384 1612.902100,1290.519531 
	C1613.426392,1304.137451 1613.592773,1317.772217 1613.685791,1331.401978 
	C1613.726440,1337.357056 1613.128174,1343.313599 1613.029419,1349.273071 
	C1612.906860,1356.674316 1613.034668,1364.079346 1612.989014,1371.482300 
	C1612.962280,1375.814697 1614.353638,1378.552612 1619.359863,1378.036377 
	C1621.503540,1377.815430 1623.689209,1377.999268 1625.855713,1378.000122 
	C1633.844727,1378.003296 1638.938232,1383.046387 1638.986938,1391.138306 
	C1639.042114,1400.304077 1639.025879,1409.470581 1638.991821,1418.636597 
	C1638.962769,1426.482422 1634.547119,1430.951294 1626.786987,1430.991089 
	C1619.228638,1431.029907 1611.667603,1431.097046 1604.113770,1430.908203 
	C1602.735107,1430.873779 1600.831665,1430.036987 1600.111328,1428.948242 
	C1594.965820,1421.170776 1590.134766,1413.186035 1585.067505,1405.355347 
	C1577.872314,1394.235840 1570.534790,1383.208618 1563.307617,1372.109741 
	C1558.512207,1364.745361 1553.354492,1357.570312 1549.145630,1349.879883 
	C1539.184326,1331.679565 1525.008789,1321.469971 1503.407471,1321.861328 
	C1473.085938,1322.410400 1442.746094,1321.864746 1412.415771,1322.052979 
	C1395.539795,1322.157715 1382.873291,1329.919800 1373.907959,1344.207642 
	C1363.721313,1360.442017 1353.161621,1376.442017 1342.914429,1392.638916 
	C1334.690063,1405.638184 1326.842163,1418.876953 1318.530518,1431.819092 
	C1313.923950,1438.992310 1308.908325,1445.932617 1303.617798,1452.614258 
	C1302.392944,1454.161255 1299.294189,1454.866577 1297.054565,1454.873047 
	C1249.893311,1455.008545 1202.731445,1454.994019 1155.569824,1454.996826 
	C1061.075928,1455.002197 966.582031,1454.970703 872.088318,1455.088989 
	C867.284790,1455.094971 864.546875,1453.781494 861.907532,1449.414307 
	C853.762085,1435.936279 844.792480,1422.958984 836.280945,1409.698486 
	C832.030151,1403.075928 828.204651,1396.180542 823.957458,1389.555542 
	C819.857178,1383.159546 815.342957,1377.029541 811.225403,1370.644165 
	C805.658142,1362.010742 800.203857,1353.301147 794.871094,1344.520874 
	C789.216614,1335.211060 781.504333,1328.201050 771.371277,1324.386597 
	C767.009216,1322.744629 762.029907,1322.141724 757.324158,1322.110596 
	C727.244385,1321.911865 697.154053,1322.441162 667.084534,1321.851440 
	C645.803284,1321.434204 630.309082,1329.690552 619.376587,1347.985352 
	C610.154480,1363.417969 599.908386,1378.237793 590.147827,1393.349854 
	C582.775330,1404.764648 575.340637,1416.142212 568.182312,1427.690552 
	C566.176636,1430.926270 563.862549,1432.255249 560.118958,1432.056641 
	C555.334045,1431.802979 550.525513,1431.995239 545.400208,1431.995239 
	C544.909119,1436.556396 544.073242,1440.775391 544.060486,1444.996582 
	C543.954346,1479.994263 544.000305,1514.992310 544.000793,1549.990234 
	C544.000793,1550.823486 543.959595,1551.660034 544.017517,1552.489502 
	C544.503174,1559.435913 545.103943,1559.877197 551.978149,1560.047363 
	C555.584106,1560.136719 559.315247,1560.227051 562.746033,1561.187744 
	C568.314087,1562.746826 571.654236,1568.136719 570.974854,1573.254028 
	C570.423950,1577.403564 565.510132,1580.934326 559.732361,1580.969116 
	C545.196472,1581.056396 530.659607,1580.999512 516.123169,1580.999878 
	C510.730530,1581.000000 505.206390,1581.713379 499.989990,1580.754028 
	C496.323700,1580.079712 491.943146,1577.928223 489.887573,1575.019043 
	C486.101440,1569.660400 490.647919,1562.207275 497.771423,1561.072998 
	C501.666229,1560.452881 505.638367,1560.122192 509.581879,1560.060791 
	C513.299622,1560.002686 515.043030,1558.674561 515.036804,1554.758667 
	C514.973572,1515.261108 515.001343,1475.763550 514.990662,1436.265869 
	C514.989685,1432.718628 513.975891,1431.186279 509.629059,1431.312134 
	C504.324463,1431.465698 497.980682,1432.490601 494.403687,1426.753174 
	C492.751495,1424.103027 491.242401,1420.850464 491.154419,1417.827759 
	C490.783630,1405.090698 491.037201,1392.336670 490.900726,1379.590576 
	C490.874847,1377.170044 490.115601,1374.757568 489.625671,1371.944946 
	C488.728333,1372.421997 487.825531,1372.606201 487.432983,1373.155273 
	C481.912537,1380.876709 473.652863,1381.805664 465.229218,1381.948242 
	C454.071289,1382.137085 442.896973,1382.292358 431.750427,1381.889160 
	C424.261902,1381.618408 417.499115,1379.051758 413.579620,1371.912109 
	C412.810028,1370.510254 412.127594,1368.859619 412.070435,1367.299316 
	C411.634888,1355.408447 411.116852,1343.511841 411.107635,1331.616577 
	C411.096985,1317.825928 411.819000,1304.034424 411.790283,1290.244263 
	C411.746582,1269.256958 411.231537,1248.270874 411.125977,1227.283325 
	C411.088287,1219.793091 411.724548,1212.301758 411.929047,1204.807495 
	C412.057892,1200.086060 411.281952,1195.240234 412.085876,1190.656006 
	C414.424652,1177.319336 420.393250,1173.346191 431.563263,1173.075195 
	C444.055176,1172.772217 456.566895,1172.745483 469.057465,1173.073608 
	C482.416595,1173.424683 489.976166,1181.795532 489.968048,1195.350830 
	C489.953094,1220.348999 490.091553,1245.348022 489.902618,1270.344604 
	C489.868225,1274.897339 491.624237,1276.196777 495.739624,1276.038208 
	C500.232666,1275.864990 504.746735,1275.819092 509.234741,1276.048340 
	C513.798218,1276.281616 515.890747,1273.653442 515.886414,1269.825928 
	C515.871704,1256.871338 515.408630,1243.917725 515.186951,1230.962524 
	C515.078674,1224.633789 514.226196,1218.144287 515.304932,1212.007812 
	C517.071350,1201.959473 521.138489,1199.386230 533.097473,1199.137207 
	C553.487610,1198.712524 573.894958,1199.108521 594.764282,1199.155029 
M666.017517,1086.272583 
	C664.422607,1097.232544 662.856262,1108.196655 661.223938,1119.151001 
	C659.883118,1128.149414 658.292908,1137.114136 657.118774,1146.133423 
	C655.259155,1160.417725 653.872070,1174.765747 651.868774,1189.028320 
	C650.445251,1199.163330 650.139221,1199.046631 660.257263,1199.021606 
	C680.237183,1198.972168 700.217773,1198.932251 720.197327,1199.039429 
	C739.810974,1199.144531 759.423523,1199.496948 779.036804,1199.510620 
	C780.305786,1199.511475 782.655518,1197.561157 782.677063,1196.481934 
	C782.869629,1186.838623 782.763428,1177.183716 782.489624,1167.539551 
	C782.403076,1164.489990 780.658386,1163.094971 777.186401,1163.183716 
	C768.055176,1163.417480 758.907776,1162.984253 749.774231,1163.173218 
	C738.794128,1163.400391 737.829041,1161.273804 734.085388,1152.456055 
	C733.768005,1151.708496 733.834595,1150.797729 733.517151,1150.050293 
	C723.054504,1125.416382 712.376160,1100.872070 702.144897,1076.142700 
	C694.419739,1057.470703 687.291809,1038.552246 679.787048,1019.787903 
	C679.256836,1018.462280 677.810059,1017.503296 676.789429,1016.373779 
	C676.194397,1017.747070 675.249512,1019.074280 675.061462,1020.501221 
	C673.894287,1029.359131 673.046997,1038.260376 671.807739,1047.107178 
	C670.018494,1059.880249 667.985779,1072.619141 666.017517,1086.272583 
z"/>
<path fill="#FFFFFF" opacity="1.000000" stroke="none" 
	d="
M1374.972290,706.185669 
	C1371.511108,697.605408 1368.562500,689.187805 1364.607300,681.273193 
	C1356.161865,664.372803 1348.199341,647.101746 1338.175781,631.153442 
	C1326.750366,612.974609 1314.090576,595.420654 1300.489624,578.804565 
	C1288.196289,563.785950 1274.300659,549.998230 1260.376343,536.421692 
	C1250.020874,526.324768 1239.139404,516.509033 1227.334351,508.216156 
	C1208.542603,495.014984 1189.126343,482.607208 1169.315796,470.986237 
	C1156.652588,463.557953 1142.859253,458.029572 1129.460571,451.893982 
	C1123.682617,449.248077 1117.272095,447.850800 1111.755615,444.792114 
	C1096.269287,436.205200 1089.823120,417.601227 1099.886108,400.747406 
	C1109.204956,385.140045 1122.205078,381.902344 1138.314575,387.302795 
	C1161.244385,394.989655 1183.417603,404.584442 1204.442261,416.508026 
	C1219.309082,424.939423 1234.078491,433.755676 1247.890015,443.779877 
	C1264.192139,455.611755 1279.702148,468.595428 1295.012329,481.713745 
	C1306.661133,491.694733 1317.928833,502.218475 1328.534302,513.296997 
	C1346.171997,531.721436 1362.780273,551.167053 1376.757324,572.518066 
	C1389.716187,592.313843 1402.067871,612.589661 1413.311523,633.397339 
	C1421.091797,647.795471 1427.126099,663.235474 1432.869995,678.609924 
	C1439.743164,697.007080 1446.082153,715.656433 1451.496094,734.528320 
	C1455.327271,747.883057 1457.455322,761.749390 1459.941895,775.460205 
	C1462.196899,787.893311 1464.099609,800.399109 1465.790771,812.922485 
	C1466.871704,820.927490 1467.751099,829.013855 1467.902344,837.079163 
	C1468.217651,853.904419 1468.486450,870.759277 1467.828003,887.564880 
	C1467.305542,900.903442 1465.478760,914.198120 1464.027954,927.490234 
	C1463.244263,934.671143 1462.090088,941.814087 1461.005615,948.959412 
	C1458.906860,962.788269 1444.949951,972.891846 1432.553711,973.099548 
	C1420.158569,973.307129 1410.223145,969.109131 1403.296387,958.751648 
	C1398.132202,951.029846 1397.057983,942.615784 1398.658569,933.345886 
	C1400.423218,923.125244 1401.218872,912.708435 1401.932983,902.342407 
	C1402.878052,888.624207 1404.281860,874.836731 1403.766846,861.143799 
	C1403.079834,842.876648 1400.802734,824.665771 1399.093262,806.441528 
	C1396.298218,776.646301 1388.165527,748.025146 1379.703491,719.490417 
	C1378.404175,715.109009 1376.599609,710.877319 1374.972290,706.185669 
z"/>
<path fill="#FFFFFF" opacity="1.000000" stroke="none" 
	d="
M1117.232666,591.760010 
	C1106.896606,586.350464 1096.860352,581.147888 1086.794800,576.002686 
	C1078.490234,571.757690 1069.256104,568.733704 1062.023193,563.120667 
	C1049.064331,553.063904 1046.264038,536.936890 1054.601074,523.223633 
	C1063.494507,508.595337 1078.211914,504.461609 1093.765869,510.264893 
	C1105.025269,514.465881 1116.345459,518.808899 1126.941284,524.408142 
	C1141.058228,531.867981 1155.073486,539.795471 1168.086914,549.000427 
	C1185.185425,561.094788 1202.237549,573.584473 1217.528198,587.817749 
	C1235.001343,604.082520 1251.555664,621.595093 1264.797119,641.702942 
	C1274.946045,657.114807 1285.141846,672.575012 1294.018677,688.727173 
	C1308.147827,714.436218 1318.325195,741.867371 1325.157349,770.405273 
	C1330.739258,793.721497 1335.273926,817.262817 1336.001465,841.348755 
	C1336.332520,852.312256 1337.343140,863.321838 1336.706299,874.232300 
	C1335.734497,890.882019 1334.450073,907.604614 1331.727417,924.035889 
	C1328.875000,941.250305 1312.030029,950.949829 1295.972290,947.631775 
	C1277.474976,943.809631 1265.788452,927.112671 1270.077637,905.291077 
	C1273.664673,887.042053 1274.213623,868.151428 1272.351562,849.416321 
	C1271.239136,838.224121 1270.619629,826.957825 1268.921631,815.855835 
	C1267.129028,804.134705 1264.802002,792.443054 1261.808716,780.973328 
	C1259.106079,770.617432 1255.547241,760.440735 1251.701904,750.440430 
	C1248.142090,741.182861 1244.221924,731.983948 1239.528076,723.260864 
	C1232.437012,710.082703 1225.110474,696.956726 1216.808594,684.526917 
	C1209.401123,673.436157 1201.063354,662.846680 1192.161987,652.908447 
	C1183.646729,643.401184 1173.924805,634.967346 1164.646484,626.152954 
	C1152.034668,614.171448 1137.778687,604.384644 1123.013672,595.296997 
	C1121.193604,594.176819 1119.351562,593.092712 1117.232666,591.760010 
z"/>
<path fill="#121B20" opacity="1.000000" stroke="none" 
	d="
M635.399902,1382.267334 
	C647.958984,1372.312378 661.269165,1364.918457 676.558899,1360.551758 
	C693.131958,1355.818359 709.427795,1354.966431 726.392273,1357.773193 
	C741.887390,1360.336548 755.613831,1365.990356 769.081726,1374.121948 
	C791.813049,1387.846802 806.064941,1407.831787 815.065613,1431.839600 
	C821.078979,1447.879272 822.192078,1464.819702 820.239929,1482.029419 
	C819.002563,1492.938354 816.769043,1503.386719 812.291748,1513.396362 
	C804.322876,1531.211914 793.417114,1546.868286 777.068909,1557.807251 
	C767.118286,1564.465576 756.617920,1570.698242 745.583191,1575.212158 
	C737.091675,1578.685669 727.452393,1579.848389 718.195435,1580.825439 
	C707.534790,1581.950562 696.876465,1581.595703 686.128540,1579.301880 
	C669.257812,1575.701538 654.089539,1569.118530 640.230347,1558.869873 
	C624.876709,1547.516235 613.803955,1533.015137 605.418274,1516.004395 
	C596.234741,1497.375610 593.710693,1477.650024 595.244324,1457.392822 
	C596.173950,1445.114136 599.526367,1433.212769 605.810242,1422.320679 
	C609.538574,1415.858032 612.104675,1408.597290 616.527893,1402.695679 
	C621.991394,1395.406128 628.840332,1389.154907 635.399902,1382.267334 
M734.291138,1422.137695 
	C721.577698,1415.596069 708.666687,1411.978027 694.244263,1416.844238 
	C676.081360,1422.972534 663.036438,1434.342651 657.477722,1452.716309 
	C649.704956,1478.408325 660.099121,1502.945923 682.121338,1515.391113 
	C695.531006,1522.969238 709.833801,1524.318726 724.411499,1519.795288 
	C735.176086,1516.455078 744.112793,1510.443970 750.987000,1500.929321 
	C758.649719,1490.323364 762.188904,1478.442017 761.471558,1466.069336 
	C760.385986,1447.345703 751.117065,1432.579346 734.291138,1422.137695 
z"/>
<path fill="#121B20" opacity="1.000000" stroke="none" 
	d="
M1348.980713,1486.011719 
	C1347.420898,1470.352417 1347.156982,1455.283081 1351.320068,1440.274536 
	C1358.543091,1414.234619 1373.327148,1393.253052 1394.613281,1377.299927 
	C1409.250366,1366.330444 1426.301270,1359.677124 1444.642578,1357.111816 
	C1465.045532,1354.258057 1484.657593,1357.494995 1503.930542,1364.442871 
	C1517.009644,1369.157959 1527.710693,1377.173706 1537.795898,1386.354126 
	C1549.681885,1397.173828 1557.975830,1410.148804 1564.354126,1425.002197 
	C1571.299316,1441.175659 1574.432861,1457.784180 1573.718262,1474.974731 
	C1572.980591,1492.721680 1567.618286,1509.265869 1558.834595,1525.044189 
	C1548.053955,1544.409790 1532.358765,1558.135498 1513.496338,1568.551636 
	C1502.580444,1574.579346 1490.482422,1577.985596 1478.126587,1579.935425 
	C1458.599609,1583.017090 1439.308716,1581.341675 1420.801758,1574.632324 
	C1410.588501,1570.929810 1401.393677,1565.047119 1392.405273,1558.535767 
	C1379.297119,1549.040405 1369.288818,1537.332397 1361.438843,1523.565308 
	C1354.883057,1512.067871 1351.323853,1499.434570 1348.980713,1486.011719 
M1408.966797,1479.396606 
	C1409.253662,1481.019287 1409.386719,1482.687622 1409.851196,1484.257812 
	C1414.535889,1500.096313 1424.322510,1511.293091 1439.667236,1517.807861 
	C1457.457642,1525.360840 1474.860840,1523.872070 1490.542603,1513.629883 
	C1513.117432,1498.885864 1520.627197,1471.257324 1509.391357,1446.513550 
	C1495.622559,1416.191772 1454.856445,1401.708130 1425.022461,1429.385742 
	C1417.704346,1436.175049 1411.082275,1443.906006 1409.960815,1454.402466 
	C1409.108398,1462.382812 1409.245483,1470.468750 1408.966797,1479.396606 
z"/>
<path fill="#FFFFFF" opacity="1.000000" stroke="none" 
	d="
M1006.576294,648.805420 
	C1011.366394,635.897522 1029.727295,626.313538 1044.642334,631.541321 
	C1059.010376,636.577271 1072.766235,642.768066 1085.117310,651.285645 
	C1100.941284,662.198242 1116.033813,674.251892 1130.834839,686.544312 
	C1144.817017,698.156616 1155.094971,713.158386 1165.328125,728.012573 
	C1180.869995,750.572693 1191.307739,775.492249 1198.425171,801.851562 
	C1205.389893,827.645447 1207.299561,853.992310 1205.794678,880.530090 
	C1205.299805,889.258179 1203.424194,898.121460 1200.711304,906.444153 
	C1198.440552,913.410706 1186.755005,924.130859 1176.326172,924.244202 
	C1165.828857,924.358276 1156.592773,922.179199 1149.436890,914.606628 
	C1142.501831,907.267578 1138.295654,898.856323 1139.676147,887.853943 
	C1141.676514,871.912537 1141.587158,855.917603 1139.432495,839.814392 
	C1137.453125,825.020142 1134.472534,810.606689 1128.885254,796.847839 
	C1125.271362,787.948364 1120.865723,779.337158 1116.349731,770.844116 
	C1106.683838,752.665894 1092.760742,737.813293 1077.571167,724.322388 
	C1063.290039,711.638245 1047.289429,701.205261 1029.437256,694.012878 
	C1018.951721,689.788330 1010.306946,683.642944 1005.992798,672.790039 
	C1002.865967,664.924072 1003.520447,656.974548 1006.576294,648.805420 
z"/>
<path fill="#8A8E8F" opacity="1.000000" stroke="none" 
	d="
M666.037231,1085.822632 
	C667.985779,1072.619141 670.018494,1059.880249 671.807739,1047.107178 
	C673.046997,1038.260376 673.894287,1029.359131 675.061462,1020.501221 
	C675.249512,1019.074280 676.194397,1017.747070 676.789429,1016.373779 
	C677.810059,1017.503296 679.256836,1018.462280 679.787048,1019.787903 
	C687.291809,1038.552246 694.419739,1057.470703 702.144897,1076.142700 
	C712.376160,1100.872070 723.054504,1125.416382 733.517151,1150.050293 
	C733.834595,1150.797729 733.768005,1151.708496 734.085388,1152.456055 
	C737.829041,1161.273804 738.794128,1163.400391 749.774231,1163.173218 
	C758.907776,1162.984253 768.055176,1163.417480 777.186401,1163.183716 
	C780.658386,1163.094971 782.403076,1164.489990 782.489624,1167.539551 
	C782.763428,1177.183716 782.869629,1186.838623 782.677063,1196.481934 
	C782.655518,1197.561157 780.305786,1199.511475 779.036804,1199.510620 
	C759.423523,1199.496948 739.810974,1199.144531 720.197327,1199.039429 
	C700.217773,1198.932251 680.237183,1198.972168 660.257263,1199.021606 
	C650.139221,1199.046631 650.445251,1199.163330 651.868774,1189.028320 
	C653.872070,1174.765747 655.259155,1160.417725 657.118774,1146.133423 
	C658.292908,1137.114136 659.883118,1128.149414 661.223938,1119.151001 
	C662.856262,1108.196655 664.422607,1097.232544 666.037231,1085.822632 
z"/>
<path fill="#8A8E8F" opacity="1.000000" stroke="none" 
	d="
M734.562866,1422.389404 
	C751.117065,1432.579346 760.385986,1447.345703 761.471558,1466.069336 
	C762.188904,1478.442017 758.649719,1490.323364 750.987000,1500.929321 
	C744.112793,1510.443970 735.176086,1516.455078 724.411499,1519.795288 
	C709.833801,1524.318726 695.531006,1522.969238 682.121338,1515.391113 
	C660.099121,1502.945923 649.704956,1478.408325 657.477722,1452.716309 
	C663.036438,1434.342651 676.081360,1422.972534 694.244263,1416.844238 
	C708.666687,1411.978027 721.577698,1415.596069 734.562866,1422.389404 
z"/>
<path fill="#8A8E8F" opacity="1.000000" stroke="none" 
	d="
M1408.954590,1478.952148 
	C1409.245483,1470.468750 1409.108398,1462.382812 1409.960815,1454.402466 
	C1411.082275,1443.906006 1417.704346,1436.175049 1425.022461,1429.385742 
	C1454.856445,1401.708130 1495.622559,1416.191772 1509.391357,1446.513550 
	C1520.627197,1471.257324 1513.117432,1498.885864 1490.542603,1513.629883 
	C1474.860840,1523.872070 1457.457642,1525.360840 1439.667236,1517.807861 
	C1424.322510,1511.293091 1414.535889,1500.096313 1409.851196,1484.257812 
	C1409.386719,1482.687622 1409.253662,1481.019287 1408.954590,1478.952148 
z"/>
</svg>
